<?xml version="1.0" encoding="utf-8"?>
<!-- Generator: Adobe Illustrator 26.3.1, SVG Export Plug-In . SVG Version: 6.00 Build 0)  -->
<svg version="1.1" id="Layer_1" xmlns="http://www.w3.org/2000/svg" xmlns:xlink="http://www.w3.org/1999/xlink" x="0px" y="0px"
	 viewBox="0 0 2000 2000" style="enable-background:new 0 0 2000 2000;" xml:space="preserve">
<style type="text/css">
	.st0{fill:#FEFEFE;}
	.st1{fill:#0B3D91;}
	.st2{fill:#FC3D21;}
	.st3{fill:#FD7965;}
	.st4{fill:#FFFFFF;}
	.st5{fill:#F7F9FC;}
	.st6{fill:#F5F8FB;}
	.st7{fill:#F5F7FA;}
	.st8{fill:#EEF2F8;}
	.st9{fill:#DAE3EF;}
	.st10{fill:#EBF0F6;}
	.st11{fill:#EDF1F7;}
	.st12{fill:#EBF2F8;}
	.st13{fill:#F1F5F9;}
	.st14{fill:#EBF1F7;}
	.st15{fill:#3459A1;}
	.st16{fill:#3965A8;}
	.st17{fill:#9585BA;}
	.st18{fill:#92ADD0;}
	.st19{fill:#B7CAE1;}
	.st20{fill:#95DBEA;}
	.st21{fill:#9DB1D3;}
	.st22{fill:#5D7DB5;}
	.st23{fill:#C7D0E5;}
	.st24{fill:#3864A7;}
	.st25{fill:#4B6DAC;}
	.st26{fill:#C6A5CC;}
	.st27{fill:#AAEBF4;}
	.st28{fill:#B1BEDA;}
	.st29{fill:#A4A3CB;}
	.st30{fill:#AAC0DB;}
	.st31{fill:#A5DBEA;}
	.st32{fill:#80CAE1;}
	.st33{fill:#B3BEDA;}
	.st34{fill:#899CC6;}
	.st35{fill:#627BB4;}
	.st36{fill:#5096C4;}
	.st37{fill:#5196C4;}
	.st38{fill:#5D83B9;}
	.st39{fill:#E0DCEB;}
	.st40{fill:#F8FAFC;}
	.st41{fill:#EDF2F8;}
	.st42{fill:#D7E0EE;}
	.st43{fill:#EBEFF6;}
	.st44{fill:#9BB5D5;}
	.st45{fill:#F35942;}
	.st46{fill:#A6B4D4;}
	.st47{fill:#486AAA;}
	.st48{fill:#92ABCF;}
	.st49{fill:#446EAD;}
	.st50{fill:#DECDE3;}
	.st51{fill:#4091C0;}
	.st52{fill:#A7A9CF;}
	.st53{fill:#6E5BA2;}
	.st54{fill:#5D7EB6;}
	.st55{fill:#E8EEF6;}
	.st56{fill:#EBF3F8;}
	.st57{fill:#6F75AB;}
	.st58{fill:#F8EBED;}
	.st59{fill:#493D76;}
	.st60{fill:#6B3D66;}
	.st61{fill:#D53D33;}
	.st62{fill:#893D62;}
	.st63{fill:#2E3D8C;}
	.st64{fill:#0C3D91;}
	.st65{fill:#EFF3F7;}
	.st66{fill:#395DA2;}
	.st67{fill:#0C3E91;}
	.st68{fill:#FB3E24;}
	.st69{fill:#8FA8CD;}
	.st70{fill:#5476B1;}
	.st71{fill:#8BA5CC;}
	.st72{fill:#6C8BBD;}
	.st73{fill:#757CB5;}
	.st74{fill:#FC3E22;}
	.st75{fill:#0E4093;}
</style>
<g>
	<g>
		<path class="st0" d="M-670.75,215.77c1133.33,0,2266.67,0,3400,0c0,566.67,0,1133.33,0,1700c-1133.33,0-2266.67,0-3400,0
			C-670.75,1349.1-670.75,782.43-670.75,215.77z"/>
		<path class="st1" d="M1587.34,803.02c20.98,48.08,35.31,98.14,44.27,149.75c9.21,53.04,11.61,106.53,7.78,160.13
			c-8,111.91-41.23,216-102.24,310.26c-101.38,156.65-243.74,255.6-426.02,296.26c-64.41,14.37-129.87,18.03-195.62,12.13
			c-143.96-12.91-270.91-66.51-380.73-160.5c-1.75-1.5-3.26-3.27-4.88-4.92c2.2-8.95,10.55-12.46,16.58-17.6
			c99.48-84.84,204.22-162.8,311.47-237.46c11.18-7.78,22.37-15.57,33.47-23.47c3.17-2.25,6.3-5.13,10.81-4.11
			c10.4,8.56,16.57,20.62,25.23,30.65c9.81,11.36,20.55,21.75,31.45,32c6.47,6.08,14.66,9.1,23.19,11
			c5.68,1.26,10.59-0.54,14.21-5.11c3.54-4.47,2.83-9.32,0.61-14.13c-2.73-5.93-7.45-10.18-12.4-14.12
			c-18.21-14.5-36.88-28.43-54.35-43.84c-3.65-3.22-8.45-5.66-8.47-11.57c8.35-9.3,19.52-14.89,29.59-21.81
			c26.9-18.47,53.97-36.71,81.11-54.83c4.28-2.86,8.5-8.1,14.97-4.32c2.37,5.06,1.19,10.36,1.48,15.95
			c3.36-6.47,9-10.46,14.91-14.25c7.54-4.82,15.16-5.63,23.73-2.67c28.5,9.83,57.94,12.58,87.44,6.98
			c33.56-6.38,61.49-22.77,79.99-52.56c4.62-7.44,6.58-15.93,6.41-24.8c0.56-3.69-0.57-8.11,4.33-9.89
			c6.62,3.12,9.05,9.76,11.7,15.59c6.05,13.33,12.64,26.42,18.67,39.76c4.27,9.45,6.22,17.74-5.09,25.64
			c17.53-2.32,19.88,10.14,23.63,21.14c14.79,43.4,25.86,87.5,24.2,133.83c-0.85,23.61-6.42,46.1-18.11,66.82
			c-15.14,26.82-38.69,38.79-68.99,40.24c-39.9,1.91-76.96-8.97-96.16-16.33c19.66,7.24,57.14,18.82,97.29,18.68
			c47.18-0.17,75.91-23.27,86.25-69.61c7.62-34.16,4.57-68.17-1.46-102.1c-4.61-25.94-11.92-51.19-20.39-76.13
			c-4.62-13.59-2.97-15.66,11.5-15.86c6.66-0.09,13.32,0.01,19.98-0.05c5.01-0.04,7.05-1.82,3.93-6.61
			c-9.61-14.71-3.85-29.59-0.37-44.37c0.92-3.92,4.17-6.23,8.12-6.38c24.29-0.95,48.6-0.84,72.9-0.06c4.75,0.15,8.08,3.12,9.86,7.41
			c6.42,15.5,9.48,30.77-3.94,44.56c-0.65,0.67-1.39,1.43-0.38,3.44c41.68,0.12,83.88-0.01,126.69,0.07
			c-17.75-21.81-23.2-48.78-32.76-73.81c-20.3-53.17-40.01-106.57-59.44-160.06c-2.92-8.05-7.5-10.5-15.6-10.46
			c-13.27,0.06-26.62,1.4-39.84-0.93c-5.87-5.71,0.92-7.5,3.56-9.49c12.47-9.41,25.04-18.7,37.65-27.92
			c40.54-29.65,79.3-61.47,117.08-94.53C1579.32,805.87,1582.46,802.63,1587.34,803.02z"/>
		<path class="st1" d="M319.09,1210.37c-5.83-29.03-10.6-58.2-13.07-87.76c-2.95-35.25-3.22-70.52-0.75-105.73
			c3.98-56.64,15.3-111.89,33.38-165.78c72.61-216.44,256.32-383.63,478.69-435.88c62.36-14.66,125.49-20.49,189.32-17.2
			c227.02,11.7,422.17,135.17,534.03,315.29c-0.18,4.85-4.12,6.65-7.45,8.6c-46.25,27.1-93.62,52.06-142.15,74.89
			c-46.99,22.11-94.41,43.19-142.14,63.63c-31.52,13.49-63.43,26.06-95.31,38.68c-3.12,1.23-6.24,2.38-9.69,1.53
			c-10.96-6.92-17.37-18.17-25.63-27.57c-31.86-36.28-65.83-70.43-101.46-102.99c-40.19-36.73-83.54-69.19-130.68-96.42
			c-35.32-20.41-72.31-37.05-112.81-44.41c-18.05-3.28-36.15-4.74-54.54-1.23c-37.13,7.1-61.72,28.37-73.45,64.04
			c-12.29,37.39-10,75.44-3.51,113.5c9.87,57.85,29.89,112.38,54.47,165.39c9.93,21.43,20.66,42.46,32.32,63
			c1.31,2.31,2.56,4.69,2.45,7.49c-1.34,3.65-4.79,4.34-7.85,5.44c-23.09,8.35-46.18,16.7-69.44,24.54
			c-3.45,1.16-7.24,4.18-10.84-0.01c-1.93-4.44-1.46-9.15-1.47-13.77c-0.05-23.93-0.03-47.87-0.02-71.8
			c0-23.37,0.26-24.22,13.69-43.96c-19.93,0-38.94,0-58.19,0c0.34,4.37,3.72,5.93,5.64,8.42c6.03,7.81,10.59,16.2,10.68,26.31
			c0.3,33.24,0.2,66.48,0.05,99.72c-0.01,2.66-0.29,5.31-1.38,7.81c-1.59,2.9-4,4.29-7.33,3.96c-4.76-1.33-6.26-5.66-8.43-9.32
			c-23.95-40.35-48.13-80.58-71.33-121.36c-6.57-11.55-14.06-16.63-27.69-16c-23.92,1.11-47.93,0.28-71.91,0.34
			c-3.28,0.01-6.65-0.67-9.79,0.75c-0.28,0.76-0.32,1.52,0.18,1.95c15.02,12.79,18.37,29.26,18.03,48.37
			c-0.88,49.9-0.28,99.83-0.32,149.74c0,4.97,0.52,10-1.19,14.84c-7.61,8.66-18.94,10.68-28.67,15.25
			c-24.4,11.44-48.31,23.84-72.58,35.52C327.34,1209.95,323.75,1213.57,319.09,1210.37z"/>
		<path class="st1" d="M514.4,1552.66c-93.91-89.05-157.6-195.95-190.03-321.32c0.56-2.6,2.69-3.75,4.75-4.72
			c31.24-14.7,62.92-28.29,95.96-38.52c17.99-0.74,36.02,0.37,54.68-0.68c-0.78-5.44-6.32-7.69-6.2-12.56
			c0.42-3.13,2.81-4.5,5.33-5.32c18.3-6,36.61-12.01,55.3-16.74c1.61-0.41,3.31-0.11,4.91,0.42c8.46,6.07,11.45,16,16.9,24.18
			c3.38,5.07,7.13,8.38,13.57,8.39c29.48,0.01,58.97-0.03,91.42,0.03c-22.55-17.13-21.55-38.73-17.52-61.07
			c2.39-3.11,5.94-4.09,9.47-4.98c32.13-8.03,64.24-16.15,96.39-24.11c2.9-0.72,5.82-1.35,8.83-0.58c2.28,0.74,3.59,2.35,4.17,4.61
			c-0.84,13.73-6.49,26.34-9.31,39.6c-3.86,18.14-10.59,34.31-27.47,44.32c-1.07,0.64-2.15,1.54-1.96,4.36
			c20.64,0.11,41.37,0.11,60.89-0.03c1.85-1.26,2.3-2.01,1.88-2.56c-10.61-14.1-8.27-29.33-3.97-44.73
			c0.88-3.14,1.23-7.35,5.04-7.85c3.04-0.4,4.99,2.98,6.7,5.36c14.95,20.8,30.32,41.27,46.51,61.13
			c13.02,15.98,26.89,31.26,38.98,48c2.7,3.74,6.05,7.18,6.27,12.21c-0.85,5.37-5.55,7.19-9.29,9.73
			c-49.17,33.48-98.52,66.7-147.22,100.87c-26.14,18.34-50.07,39.5-74.3,60.21c-28.26,24.16-55.78,49.17-83.54,73.9
			c-16.36,14.57-31.92,30.03-48.69,44.16C520.39,1550.42,518.36,1553.48,514.4,1552.66z"/>
		<path class="st2" d="M1144.81,900.17c64.46-25.78,128.65-52.21,191.87-80.94c65.06-29.57,129.43-60.5,190.92-97.08
			c4.52-2.69,9.63-4.58,13.09-8.85c13.76-6.73,26.35-15.42,39.22-23.61c68.14-43.35,131.59-92.62,188.97-149.56
			c25.76-25.56,49.8-52.68,72.83-80.7c0.85-0.9,1.67-0.88,2.47,0.06c-7.74,24.46-18.66,47.56-30.44,70.25
			c-32.68,62.97-74.97,119.09-122.64,171.36c-29.15,31.96-60.2,61.99-92.42,90.84c-3.93,3.52-8.47,6.46-11.35,11.08
			c-19.1,16.02-38.13,32.11-57.31,48.03c-36.84,30.6-75.55,58.78-114.16,87.07c-5.61,8.71-15.3,12.35-23.09,18.33
			c-9.74,7.48-20.34,13.84-29.76,21.8c-33.38,23.62-67.26,46.51-101.35,69.09c-3.54,2.34-6.83,5.51-11.67,4.83
			c-8.13-5.64-12.21-13.86-14.68-23.09c0.95-3.07,3.41-4.82,5.89-6.48c36.68-24.51,71.98-50.96,107.79-76.67
			c4.35-2.58,8.18-5.89,12.28-8.84c43.54-33,87.44-65.53,129.41-100.55c1.79-1.49,3.79-2.66,5.7-3.97
			c3.09-3.15,6.98-5.22,10.53-7.74c2.37-1.45,3.9-3.92,6.33-5.27c0.4-0.34,0.86-0.64,1.27-0.82c-0.07,0.08-0.02-0.46-0.02-0.46
			s0.21,0.5,0.19,0.52c-0.9,0.03-1.33,0.8-2.05,1.17c-1.74,0.93-2.96,2.42-4.37,3.7c-0.7,0.5-1.41,0.97-2.14,1.43
			c-3.72,2.53-7.49,4.98-10.86,7.98c-50.8,32.56-104.19,60.24-159.14,85.05c-28.81,13.01-57.78,25.61-87.23,37.12
			c-4.21,1.65-8.38,4.52-13.27,1.95c-3.26-3.9-0.97-9.08-3.43-14.23c-16.75,12.6-34.19,3.17-51.47,1.76
			c-3.41-0.28-6.15-2.59-8.29-5.15c-9.14-10.93-17.53-22.46-26.1-33.83C1145.17,904.16,1144.32,902.3,1144.81,900.17z"/>
		<path class="st2" d="M514.4,1552.66c15.08-13.55,30.21-27.05,45.24-40.65c46.38-41.98,92.86-83.84,141.38-123.37
			c22.23-18.1,46.06-33.92,69.67-50.09c35.41-24.25,70.93-48.32,106.38-72.51c2.73-1.86,5.24-4.05,7.85-6.08
			c3.73-5.99,10.66-8.2,15.4-13.01c29.17-19.54,58.86-38.32,87.06-59.28c3.6-2.06,7.29-3.96,10.59-6.5
			c16.03-10.27,31.73-21.05,47.53-31.69c6.33-3.8,12.37-8.03,18.41-12.28c19.29-12.57,38.39-25.43,57.76-37.88
			c28.58-18.8,58.08-36.13,86.96-54.45c5.98-2.85,10.29-9.13,17.86-8.73c6.95,5.99,11.67,13.3,13.21,22.48
			c-0.48,2.65-2.13,4.45-4.24,5.93c-26.5,16.52-51.98,34.63-78.23,51.54c-20.29,13.94-41.01,27.22-61.75,40.49
			c-14.65,7.29-27.32,17.77-41.51,25.8c-2.57,1.45-4.63,3.89-7.89,3.95c-17.42,10.21-33.79,22.02-50.54,33.25
			c-24.46,16.39-48.75,33.04-73.11,49.57c-5.85,6.55-12.42,12.09-20.95,14.87c-41.94,28.19-83.21,57.36-124.05,87.11
			c-82.81,60.31-164.11,122.56-241.65,189.58c-2.01,1.73-3.9,3.6-5.85,5.4c-13.96,10.24-26.53,22.14-39.52,33.51
			c-25.52,22.34-50.78,44.99-76.17,67.49c-1.95,1.73-4.01,3.34-7.71,6.4c0.4-10.79-1.58-19.32,7.09-27.15
			c32.33-29.2,64.01-59.11,95.92-88.76C511.21,1556.03,512.77,1554.31,514.4,1552.66z"/>
		<path class="st2" d="M424.57,1190.05c-33.85,12.69-67.55,25.72-100.21,41.3c-21.2,8.8-41.35,19.73-61.66,30.35
			c-6.48,3.39-12.86,6.95-19.27,10.47c-13.89,7.63-13.89,7.64-30.08-0.48c34.31-22.91,70.13-41.92,105.73-61.32
			c14.25-6.88,28.48-13.82,42.76-20.64c22.64-10.8,45.06-22.06,68.41-31.3c4.01,10.84-5.32,16.41-9.6,23.93
			c-1.44,2.54-4.34,3.88-6.7,5.63c-1.07,0.67,1.16,1.17,0.21,0.23C418.21,1185.59,421.92,1184.8,424.57,1190.05z"/>
		<path class="st3" d="M1844.19,459.5c-0.82-0.02-1.65-0.04-2.47-0.06c0.8-1.53,1.08-4.11,3.58-2.95
			C1846.2,456.91,1845.52,458.79,1844.19,459.5z"/>
		<path class="st4" d="M1210.01,1046.47c-18.87,13.43-39.38,24.23-58.84,36.73c-9.7,6.23-18.9,13.3-29.49,18.07
			c-8.3,2.96-14.71-2.73-21.74-5.03c-15.37-5.04-28.78-13.35-40.17-25.11c-13.18-13.6-20.01-29.52-20.17-48.38
			c-1.6-29.25,10.15-52.21,33.08-69.85c22.67-17.43,49.29-17.74,77.99-16.34c-6.2-11.9-14.48-19.83-21.66-28.55
			c-13.46-17.8-28.48-34.3-43.5-50.72c-45.22-49.45-93.98-95.15-148.31-134.53c-41.08-29.77-83.86-56.82-132.76-72.27
			c-24.52-7.75-49.44-13.46-75.59-9.29c-30.63,4.88-53.08,20.27-65.12,49.39c-10.09,24.4-13.3,49.74-11.44,76.09
			c6.64,94.1,44.76,177.21,89.31,258.16c2.19,3.98,5.67,7.69,3.26,12.88c-4.36,4.02-9.04,6.66-15.08,3.58
			C693.12,976.5,663,909,645.4,836.4c-7.38-30.47-11.91-61.33-11.11-92.83c0.53-20.78,3.41-41.09,11.48-60.38
			c14.22-33.96,40.06-52.78,76.23-58.17c28.73-4.28,56.33,1.07,83.52,9.55c43.26,13.5,82.43,35.26,119.84,60.36
			c66.47,44.59,124.68,98.57,178.21,157.77c14.05,15.54,27.51,31.62,41.24,47.46c9.56,12.27,19.23,24.44,28.6,36.84
			c2.82,3.74,5.98,5.55,10.68,6.02c7.22,0.71,14.44,1.9,21.5,3.56c9.46,2.22,17.68,0.81,24.69-6.2c1.15-1.15,2.6-2.01,3.96-2.93
			c0.17-0.11,0.6,0.17,1.5,0.45c0.29,6.23,0.59,12.69,0.89,19.14c4.34,12.29,2.23,24.9,1.54,37.36c-0.33,5.87-4.83,5.55-8.84,3.42
			c-5.86-3.11-11.48-6.67-16.99-10.35c-0.89-0.82-2-1.45-2.78-2.39c-0.51-0.62-0.54-1.02-0.57-0.86c-0.12,0.64,0.13,1.14,0.79,1.52
			c10.42,13.54,20.95,26.97,26.8,43.29c4.23,7.83,8.51,15.63,13.84,22.79c10.11,9.66,14.86,22.71,21.2,34.61
			c12.95,24.31,25.15,49.03,35.38,75.63c4.11-3.56,4.74-7.84,5.86-11.74c15.07-52.38,29.34-104.97,43.01-157.73
			c1.42-5.49,2.88-10.91,5.86-15.79c1.27-2.49,3.58-3.87,5.74-5.4c13.84-9.78,27.66-19.58,41.53-29.3c2.15-1.51,4.56-2.66,6.84-3.97
			c15.28,1.46,30.59,0.27,45.89,0.64c10.57,0.26,8.83-1.43,12.58,8.65c25.94,69.77,51.92,139.52,77.79,209.31
			c4.42,11.91,9.49,23.28,22.27,31.62c-49.01,0-96.01,0-144.19,0c3.19-3.63,5.9-6.72,8.61-9.81c6.87-7.84,8.89-16.41,5.96-26.79
			c-5.51-19.52-5.16-19.62-25.45-19.62c-17.98,0-35.96-0.01-53.94,0.01c-9.65,0.01-9.66,0.03-11.59,9.09
			c-0.9,4.22-1.53,8.52-2.7,12.67c-3.14,11.16-0.93,21.02,6.64,29.75c0.86,1,1.58,2.12,2.32,3.22c0.17,0.26,0.15,0.64,0.51,2.42
			c-14.74,1.1-29.46-0.2-44.9,0.83c3.41,10.35,6.65,19.71,9.57,29.17c11.23,36.32,19.75,73.17,20.94,111.37
			c0.6,19.36-0.36,38.59-5.84,57.33c-1.58,5.41-3.34,10.8-5.53,15.99c-13.54,32.03-37.92,48.53-72.54,50.39
			c-30.02,1.61-58.96-4.24-87.43-12.8c-13.35-4.01-26.43-8.97-39.56-13.68c-3.17-1.14-7.16-2.03-6.59-7.45
			c3.72-0.31,6.45,1.85,9.38,3.04c34.8,14.13,70.49,23.95,108.51,23.06c8.03-0.19,15.94-1.14,23.79-2.62
			c16.35-3.08,29.6-11.12,39.89-24.41c13.41-17.32,20.67-37.02,23.83-58.41c5.4-36.55-0.06-72.27-8.8-107.67
			c-4.47-18.07-10.07-35.83-16.74-53.22c-4.29-11.18-1.38-10.36-14.44-10.52c-2.9-0.03-5.9,0.64-9.61-1.04
			c2.95-4.01,6.97-6.21,10.46-8.85c3.15-2.38,4.02-4.69,2.35-8.47c-9.69-21.88-19.25-43.81-31.24-64.57
			c-4.02-1.75-5.02-5.8-6.98-9.13c-0.78-1.52-1.52-3.06-2.28-4.6c-0.79-1.53-1.56-3.06-2.35-4.59c-1.76-3.52-3.35-7.12-5.53-10.41
			c-1.45-2.2-2.8-4.46-4.33-6.61c-2.28-3.82-5.29-7.34-5.07-12.19c-4.23-7.94-8.83-15.66-14.18-22.91
			c-4.76-1.79-6.46-6.38-9.08-10.07c-11.44-16.1-20.85-33.62-34.18-48.39c-16.2-6.38-32.44-5.27-48.31,0.67
			c-9.29,3.48-12.37,9.83-11.26,19.37c4.18,10.15,13.25,14.3,22.47,18.12c18.9,7.83,39.03,12.65,56.93,22.92
			C1205.11,1040.78,1209.8,1041.31,1210.01,1046.47z"/>
		<path class="st4" d="M1046.07,1186.34c1.23-2.51,3.55-3.83,5.77-5.19c14.24-8.74,27.5-19.03,42.55-26.46
			c18.05,2.58,36.08,5.47,54.32,1.26c5.2-1.2,10.38-2.39,15.23-4.58c13.61-6.17,15.05-17.69,3.57-27.18
			c-3.76-3.11-8.93-4.69-10.91-9.8c0.94-1.89,2.75-2.78,4.4-3.87c22.98-15.16,45.94-30.33,68.94-45.46
			c1.35-0.89,2.94-1.41,4.41-2.11c4.71,1.41,7.25,5.42,10.42,8.67c1.67,2.09,3.31,4.19,4.77,6.44c2.87,3.84,4.52,8.38,7.01,12.44
			c0.51,1.7,1.31,3.25,2.38,4.68c0.12,1.95,1.86,3.15,2.27,4.97c3.28,5.3,0.79,11.49,2.67,17.01c0.06,15.84-6.16,29.19-17.15,40.13
			c-24.91,24.81-54.28,40.14-90.2,40.8c-25.04,0.46-49.89-0.57-73.45-10.36c-5.62-2.34-10.39-0.59-15.18,1.88
			c-8.14,4.2-14.14,10.83-20.3,19.09C1045.42,1200.55,1047.6,1193.27,1046.07,1186.34z"/>
		<path class="st4" d="M901.46,1284.04c6.07-6.24,13.36-10.76,20.95-14.87c13.33,13.56,28.42,25.06,43.29,36.8
			c8.61,6.8,17.3,13.52,25.84,20.41c4.2,3.38,7.48,7.48,9.03,12.84c3.49,12.11-3.93,21.58-16.55,20.54c-8.46-0.7-16-4.18-22.94-9.02
			c-8.52-5.94-15.81-13.21-22.88-20.74C924.73,1315.66,913.21,1299.75,901.46,1284.04z"/>
		<path class="st5" d="M1476.19,1274.76c6.43,0.87,7.63-6.02,12.07-8.11c1.23-1.31,2.54-1.3,3.92-0.24
			c4.43,1.31,5.76,6.37,9.83,8.12c0.65,0.42,0.85,0.82,0.6,1.19c-0.24,0.36-0.47,0.54-0.7,0.54c-4.26,3.32-9.41,5.91-10.19,12.15
			c-0.51,1.01-1.06,1.03-1.66,0.07c-2.5-6.58-6.55-11.38-14.08-12.14c-0.66-0.44-0.84-0.82-0.56-1.14
			C1475.67,1274.9,1475.93,1274.76,1476.19,1274.76z"/>
		<path class="st6" d="M1440.3,1423.91c-1.63,2.67-3.45,5.16-6.52,6.36c-0.91,1.24-0.69,2.93-1.66,4.15l0-0.01
			c-0.71,0.88-1.31,0.77-1.81-0.2c0.29-4.89-5.86-5.23-6.64-9.37c-0.45-1.41-2.52-2.07-1.83-3.99c2.48-4.33,8.34-6.41,8.33-12.42
			c0.57-0.94,1.14-0.99,1.71,0c0.45,2.43,0.54,4.95,3.42,6.17c2.42,1.03,3.58,3.39,4.8,5.59
			C1441.18,1421.37,1441.26,1422.62,1440.3,1423.91z"/>
		<path class="st7" d="M739.01,1564.27c-1.06,3.11-3.49,4.8-6.32,6.06c-1.41,1.03-2.77,1.04-4.05-0.23c-2.9-1.07-4.63-3.43-6.33-5.8
			c-1.07-1.42-1.06-2.84-0.01-4.26c1.17-3.38,4.45-4.98,6.47-7.64c1.13-1.39,2.3-1.38,3.5-0.1c3.11,2.21,5.94,4.71,8,7.97
			C741.81,1562.22,739.64,1563,739.01,1564.27z"/>
		<path class="st8" d="M787.4,1432.54c-0.22,4.03-4.03,7.49-7.97,7.24c-4.09-0.26-7.31-3.96-7.06-8.12c0.25-4.19,3.81-7.4,7.96-7.16
			C784.47,1424.73,787.63,1428.34,787.4,1432.54z"/>
		<path class="st8" d="M1519.99,1322.2c0.04,4.18-3.35,7.67-7.46,7.7c-4.05,0.02-7.56-3.51-7.57-7.63
			c-0.01-4.22,3.34-7.64,7.48-7.65C1516.58,1314.61,1519.95,1318,1519.99,1322.2z"/>
		<path class="st5" d="M1326.04,1332.8c0.21,4.27-2.74,7.54-7.02,7.79c-4.31,0.25-7.61-2.66-7.84-6.92
			c-0.24-4.34,2.64-7.52,7.01-7.72C1322.69,1325.74,1325.84,1328.49,1326.04,1332.8z"/>
		<path class="st5" d="M1318.54,1278c4.47-0.02,7.51,2.89,7.52,7.22c0.01,4.21-3.13,7.36-7.4,7.43c-4.31,0.06-7.49-3.01-7.53-7.27
			C1311.09,1281.07,1314.15,1278.02,1318.54,1278z"/>
		<path class="st5" d="M1416.68,1288.65c-4.32,0.1-7.52-2.93-7.6-7.2c-0.08-4.32,2.94-7.39,7.33-7.45c4.49-0.06,7.54,2.81,7.59,7.15
			C1424.05,1285.39,1420.96,1288.55,1416.68,1288.65z"/>
		<path class="st9" d="M1476.82,1340.15c-3.41-0.18-5.58-2-6.23-5.25c-0.64-3.18,2.53-6.6,5.84-6.44c3.46,0.16,5.46,2.1,5.62,5.58
			C1482.22,1337.61,1480,1339.32,1476.82,1340.15z"/>
		<path class="st9" d="M1272.21,1397.67c0.06,3.75-1.96,5.74-5.19,6.32c-3.11,0.57-6.68-2.87-6.32-6.05
			c0.37-3.28,2.21-5.55,5.75-5.55C1269.94,1392.4,1271.81,1394.44,1272.21,1397.67z"/>
		<path class="st10" d="M1273.13,1322.14c-0.26,3.44-2.07,5.74-5.53,5.79c-3.39,0.04-5.58-1.97-5.62-5.57
			c-0.04-3.53,1.83-5.67,5.39-5.79C1271,1316.46,1272.62,1318.79,1273.13,1322.14z"/>
		<path class="st11" d="M1473.77,1423.58c-0.72,3.38-2.71,5.28-6.23,5.01c-3.52-0.27-5.48-2.45-5.21-5.9
			c0.27-3.48,2.7-5.29,6.11-5.02C1471.86,1417.94,1473.7,1420.07,1473.77,1423.58z"/>
		<path class="st12" d="M1070.74,1438.91c-3.53,0.04-5.92-1.55-6.18-5.03c-0.26-3.44,1.69-5.6,5.23-5.84
			c3.5-0.24,5.8,1.54,6.11,4.98C1076.21,1436.52,1074.1,1438.44,1070.74,1438.91z"/>
		<path class="st11" d="M938.32,1475.51c3.47,0.33,5.76,2.15,5.7,5.61c-0.06,3.39-2.18,5.45-5.76,5.42
			c-3.57-0.03-5.65-2.1-5.65-5.51C932.61,1477.55,934.93,1475.79,938.32,1475.51z"/>
		<path class="st12" d="M718.24,1483.09c-0.22,3.42-1.96,5.53-5.47,5.71c-3.48,0.18-5.81-1.63-6.01-5.09
			c-0.2-3.44,1.81-5.54,5.34-5.74C715.65,1477.77,717.56,1479.71,718.24,1483.09z"/>
		<path class="st12" d="M788.91,1502.84c-3.53,0.04-5.92-1.55-6.18-5.03c-0.26-3.44,1.69-5.6,5.23-5.84c3.5-0.24,5.8,1.54,6.11,4.98
			C794.38,1500.45,792.27,1502.36,788.91,1502.84z"/>
		<path class="st13" d="M1410.95,1247.5c-0.4,3.4-2.15,5.44-5.73,5.29c-3.53-0.15-5.35-2.16-5.29-5.67c0.06-3.62,2.28-5.34,5.66-5.3
			C1409.12,1241.87,1410.82,1244.03,1410.95,1247.5z"/>
		<path class="st14" d="M1298.62,1546.87c-0.53,3.35-2.47,5.37-5.98,5.07c-3.5-0.3-5.25-2.62-4.99-6.08c0.26-3.5,2.45-5.45,5.9-5.17
			C1297.01,1540.98,1298.64,1543.33,1298.62,1546.87z"/>
		<path class="st14" d="M1416.61,1396.22c-3.41-0.61-5.27-2.62-5.04-6.11c0.23-3.5,2.4-5.49,5.84-5.24c3.44,0.25,5.3,2.56,5.08,6.04
			C1422.26,1394.4,1420.11,1396.12,1416.61,1396.22z"/>
		<path class="st15" d="M1263.87,1117.15c-1.32-6.05-2.65-12.11-3.97-18.16c-0.77-1.12-0.65-2.12,0.37-3.02
			c2.66,3.2,4.69,6.74,5.78,10.78C1262.58,1109.65,1265.29,1113.83,1263.87,1117.15z"/>
		<path class="st16" d="M1488.34,1260.93c-0.61-3.78-0.81-7.51,0.79-12.08c3.74,2.61,2.77,5.5,2.56,8.16
			C1490.43,1258.2,1491.36,1261.24,1488.34,1260.93z"/>
		<path class="st17" d="M1416.19,1424.08c-2.62,0-5.24,0-9.67,0c5.25-2.92,9.05-4.02,13.31-3.26
			C1420.7,1424.23,1417.11,1422.66,1416.19,1424.08z"/>
		<path class="st18" d="M732.27,1552.31c-1.17,0.03-2.33,0.07-3.5,0.1c-0.04-3.29-0.07-6.58-0.11-9.87
			c2.37-1.53,2.69,0.65,3.51,1.93C732.2,1547.09,732.24,1549.7,732.27,1552.31z"/>
		<path class="st19" d="M1488.34,1260.93c1.12-1.31,2.23-2.61,3.35-3.92c0.16,3.13,0.33,6.26,0.49,9.39
			c-1.31,0.08-2.61,0.16-3.92,0.24C1488.29,1264.74,1488.31,1262.84,1488.34,1260.93z"/>
		<path class="st20" d="M739.01,1564.27c0.42-1.33,0.84-2.66,1.26-3.99c3.32,0.05,6.65,0.1,9.97,0.15c0.75,0.29,1.02,0.63,0.83,1.03
			c-0.2,0.42-0.41,0.64-0.64,0.64C746.63,1562.82,742.82,1563.54,739.01,1564.27z"/>
		<path class="st21" d="M722.3,1560.04c0,1.42,0,2.84,0.01,4.26c-3.2-0.13-6.39-0.27-9.59-0.4c-1.22-3.95,2.75-1.96,3.8-3.32
			C718.44,1560.4,720.37,1560.22,722.3,1560.04z"/>
		<path class="st22" d="M716.51,1560.58c-1.27,1.11-2.53,2.21-3.8,3.32c-2.2,0.32-4.4,0.72-6.77-0.73
			C709.07,1560.11,712.68,1559.93,716.51,1560.58z"/>
		<path class="st23" d="M728.64,1570.1c1.35,0.08,2.7,0.15,4.05,0.23c-0.19,3.82-0.38,7.64-0.57,11.47
			c-0.35,1.16-0.87,1.3-1.58,0.25l0.01,0.06c-2.4-3.12,0.01-7.06-1.76-10.28C728.69,1571.25,728.65,1570.68,728.64,1570.1z"/>
		<path class="st24" d="M732.17,1544.48c-1.17-0.64-2.34-1.29-3.51-1.93c-0.06-0.97-0.3-1.97-0.13-2.9
			c0.22-1.21,0.53-2.82,2.32-2.23c0.66,0.22,1.3,1.41,1.39,2.21C732.42,1541.22,732.22,1542.86,732.17,1544.48z"/>
		<path class="st25" d="M728.78,1571.82c2.18,3.15,1.95,6.72,1.76,10.28C727.27,1579.14,728.53,1575.39,728.78,1571.82z"/>
		<path class="st26" d="M1416.19,1424.08c1.21-1.09,2.43-2.17,3.64-3.26c0.67,0.01,1.34,0.02,2.01,0.03
			c0.61,1.33,1.22,2.66,1.83,3.99C1421.18,1424.59,1418.68,1424.33,1416.19,1424.08z"/>
		<path class="st27" d="M1440.3,1423.91c-0.07-1.24-0.13-2.49-0.2-3.73c1.95,0.15,3.89,0.29,5.84,0.44
			c0.69,0.32,0.97,0.72,0.85,1.18c-0.13,0.51-0.3,0.76-0.49,0.76C1444.42,1423.56,1442.43,1424.04,1440.3,1423.91z"/>
		<path class="st28" d="M1490.06,1288.46c0.55-0.06,1.11-0.09,1.66-0.07c-0.01,2.63-0.01,5.26-0.02,7.89
			c-0.48,1.07-0.98,1.13-1.52,0.04C1489.99,1293.71,1489.22,1291.1,1490.06,1288.46z"/>
		<path class="st29" d="M1506.02,1274.53c2.28-0.46,4.52-0.67,6.53,1.01c-2.16,1.27-4.41,1.13-6.7,0.72
			c-0.56-0.44-0.71-0.85-0.48-1.21C1505.59,1274.7,1505.81,1274.53,1506.02,1274.53z"/>
		<path class="st30" d="M1431.87,1408.43l-0.85-0.03l-0.86,0.03c-0.77-2.63-0.13-5.23,0.14-7.84c0.48-1.08,0.94-1.12,1.37,0.03
			C1431.74,1403.23,1431.81,1405.83,1431.87,1408.43z"/>
		<path class="st31" d="M1476.19,1274.76c-0.09,0.52-0.16,1.04-0.21,1.57c-2.3,0.63-4.49,0.38-6.86-0.73
			C1471.59,1274.3,1473.87,1274.33,1476.19,1274.76z"/>
		<path class="st32" d="M1446.29,1422.56c-0.19-0.64-0.3-1.28-0.35-1.94c1.97,0,3.95-0.01,5.92-0.01c0.74,0.3,1,0.64,0.79,1.01
			c-0.22,0.39-0.44,0.58-0.68,0.58C1450.08,1422.33,1448.19,1422.45,1446.29,1422.56z"/>
		<path class="st25" d="M730.53,1582.05c0.53-0.05,1.06-0.13,1.58-0.25c0.09,1.61,1.47,4.06-0.94,4.36
			C729.95,1586.3,730.3,1583.57,730.53,1582.05z"/>
		<path class="st33" d="M1430.31,1434.21c0.62-0.04,1.22,0.03,1.81,0.2c0.76,1.98,0.38,3.94-0.15,5.89
			c-0.59,0.94-1.11,0.91-1.56-0.11C1429.98,1438.21,1429.67,1436.22,1430.31,1434.21z"/>
		<path class="st34" d="M1430.41,1440.2c0.52-0.01,1.04,0.03,1.56,0.11c0.28,1.57,0.56,3.13-0.87,4.37
			C1429.88,1443.32,1430.15,1441.76,1430.41,1440.2z"/>
		<path class="st35" d="M1490.19,1296.33c0.51,0.08,1.02,0.06,1.52-0.04c0.33,1.61,0.56,3.21-0.67,4.62
			C1489.61,1299.55,1489.93,1297.94,1490.19,1296.33z"/>
		<path class="st36" d="M750.44,1562.09c-0.02-0.56-0.08-1.12-0.2-1.66c1.61-0.28,3.22-0.58,4.62,0.69
			C753.66,1562.7,752.04,1562.33,750.44,1562.09z"/>
		<path class="st37" d="M1451.98,1422.21c0-0.54-0.04-1.07-0.12-1.6c1.03,0.06,2.43-0.78,2.62,1.07
			C1454.49,1421.78,1452.85,1422.03,1451.98,1422.21z"/>
		<path class="st38" d="M1431.67,1400.62l-0.69-0.05c0,0-0.69,0.01-0.69,0.01c0.13-0.88,0.27-1.76,0.4-2.64
			C1432.58,1398.28,1431.67,1399.61,1431.67,1400.62z"/>
		<path class="st33" d="M1432.12,1434.42c-0.59-1.84-0.49-3.41,1.66-4.15C1433.4,1431.73,1433.57,1433.4,1432.12,1434.42z"/>
		<path class="st39" d="M1506.02,1274.53c-0.06,0.58-0.12,1.15-0.17,1.73c-1.31,0-2.62-0.01-3.94-0.01c0-0.58,0.04-1.15,0.1-1.72
			C1503.35,1274.52,1504.68,1274.52,1506.02,1274.53z"/>
		<path class="st4" d="M424.57,1190.05c-4.15-2.12-8.98,0.43-13.73-2.04c9.25-8.3,17.75-16.78,19.41-29.58
			c1.15-6.59,0.91-13.25,0.9-19.88c-0.05-51.2-0.63-102.42,0.06-153.61c0.21-15.84-5.35-27.61-16.68-37.59
			c-2.49-2.19-4.93-4.44-7.45-6.73c1.97-3.08,4.87-1.78,7.22-1.79c31.27-0.1,62.55,0.15,93.82-0.24c6.6-0.08,10,2.04,13.28,7.68
			c25.57,43.94,51.5,87.67,77.35,131.45c1.85,3.14,3.93,6.14,5.9,9.2c3.32,3.18,4.55,0.82,5.57-2.09
			c0.08-36.28,0.14-72.56,0.27-108.84c0.03-6.95-2.51-12.95-6.09-18.68c-4.02-6.46-9.4-11.78-15.9-17.97c24.89,0,48.33,0,72.01,0
			c0.12,3.23-2.97,4.62-4.64,6.78c-7.58,9.74-12.05,20.29-11.85,33.04c0.5,30.94,0.36,61.9,0.47,92.85c1.91,2,2.97,4.51,2.85,7.14
			c-0.71,15.19,3.51,30.68-2.7,45.53c-0.15,10.28-0.3,20.57-0.44,30.85c-0.09,6.76,3.36,12.11,7.4,16.98
			c4.35,5.25,9.2,10.08,13.99,15.26c-2.75,1.99-5.46,1.13-7.94,1.13c-29.91,0.08-59.83-0.13-89.73,0.2
			c-6.11,0.07-9.58-1.86-12.55-7.13c-5.37-9.51-10.54-19.19-17.1-27.99c-9.96-9.58-14.37-22.85-22.44-33.71
			c-16.97-28.43-34.73-56.38-48.61-81.68c0.27,31.48,0.1,67.32,0.07,103.15c-1.78,11.56,2.42,21.86,6.81,32.12
			c2.61,6.15,9.37,8.81,13.76,16.17C465.82,1190.05,445.2,1190.05,424.57,1190.05z"/>
		<path class="st2" d="M644.65,1124.69c-0.91-17.55-0.61-35.11-0.15-52.67c26.67-9.35,53.34-18.69,80-28.09
			c1.84-0.65,3.53-1.76,5.29-2.65c5.4-0.4,10.24-2.61,15.11-4.72c11.03-7.12,22.78-11.95,36.22-11.48c1.39,2.07,1.71,4.43,1.07,6.69
			c-5.84,20.73-9.73,42.03-17.88,62.09c-1.32,2.03-3.49,2.15-5.58,2.48c-31.26,7.77-62.52,15.54-93.78,23.3
			C658.18,1121.35,651.42,1123.02,644.65,1124.69z"/>
		<path class="st40" d="M1100.14,517.69c0.69-3.81,4.7-5.01,6.38-8.04c2.05-1.38,2.69,0.96,4,1.52c2.85,1.09,4.89,3.03,6.07,5.85
			c0.4,1.42,2.82,2.13,1.47,4.16c-2.72,1.92-3.91,5.59-7.49,6.52c-1.55,0.91-3.08,0.91-4.59-0.1c-2.7-1.23-4.6-3.26-5.85-5.93
			C1098.96,520.33,1099.13,519.01,1100.14,517.69z"/>
		<path class="st41" d="M1110.77,663.87c4.17,0.05,7.51,3.5,7.46,7.69c-0.05,4.19-3.43,7.55-7.58,7.53
			c-4.15-0.01-7.5-3.44-7.48-7.64C1103.2,667.32,1106.71,663.82,1110.77,663.87z"/>
		<path class="st41" d="M1017.29,535.23c0.22,4.17-2.98,7.78-7.1,8.01c-4.16,0.23-7.71-2.96-7.96-7.15
			c-0.25-4.17,2.95-7.81,7.09-8.08C1013.29,527.76,1017.07,531.18,1017.29,535.23z"/>
		<path class="st41" d="M932.34,518.06c4.14-0.26,7.75,2.96,8,7.12c0.25,4.18-2.9,7.79-7.03,8.08c-4.07,0.29-7.77-2.99-8.03-7.1
			C925.01,522.1,928.31,518.32,932.34,518.06z"/>
		<path class="st42" d="M852.57,619.57c3.01,0.31,5.29,2.1,5.58,5.48c0.3,3.47-1.82,5.57-5.16,6.14c-3.32,0.56-6.58-2.49-6.52-5.85
			C846.52,622.38,849.22,619.67,852.57,619.57z"/>
		<path class="st10" d="M851.38,581.35c-0.57,3.61-2.63,5.75-6.05,5.46c-3.33-0.28-5.4-2.51-5.11-6.1c0.28-3.52,2.37-5.46,5.91-5.25
			C849.77,575.67,851.14,578.18,851.38,581.35z"/>
		<path class="st43" d="M860.71,586.45c3.37,0.39,5.62,1.99,5.61,5.63c-0.01,3.59-2.06,5.47-5.57,5.52
			c-3.59,0.05-5.63-2.04-5.67-5.48C855.02,588.61,857.28,586.83,860.71,586.45z"/>
		<path class="st43" d="M1011.12,608.43c3.36,0.66,5.42,2.54,5.11,6.12c-0.32,3.56-2.59,5.25-6.08,5c-3.58-0.25-5.4-2.53-5.15-5.96
			C1005.26,610.08,1007.71,608.54,1011.12,608.43z"/>
		<path class="st12" d="M952.03,577c3.55-0.01,5.79,1.81,5.96,5.22c0.17,3.45-1.93,5.51-5.45,5.65c-3.5,0.14-5.78-1.73-5.93-5.18
			C946.46,579.26,948.53,577.28,952.03,577z"/>
		<path class="st11" d="M877.35,597.32c3.45,0.39,5.44,2.24,5.46,5.77c0.02,3.58-2.14,5.71-5.46,5.71c-3.32,0-5.48-2.14-5.46-5.72
			C871.9,599.56,873.89,597.71,877.35,597.32z"/>
		<path class="st13" d="M979.2,452.34c-0.29,3.31-1.91,5.44-5.54,5.39c-3.5-0.06-5.44-1.92-5.49-5.47
			c-0.05-3.63,2.08-5.44,5.47-5.49C977.14,446.71,978.99,448.75,979.2,452.34z"/>
		<path class="st44" d="M1110.51,511.17c-1.33-0.51-2.67-1.01-4-1.52c-0.91-3.88-0.1-7.75,0.08-11.62c5.11,0.77,1.03,5.6,3.36,7.61
			C1110.14,507.48,1110.33,509.32,1110.51,511.17z"/>
		<path class="st45" d="M610.24,1084.84c0.16,2.9,0.33,5.79,0.53,9.38c-4.33-1.23-4.83-4.59-6.1-7.29
			C606.52,1086.24,608.38,1085.54,610.24,1084.84z"/>
		<path class="st46" d="M1105.97,527.59c1.53,0.03,3.06,0.07,4.59,0.1c-0.19,3.79-0.38,7.58-0.57,11.37
			c-5.42,0.55-1.05-4.7-3.51-5.91C1106.32,531.3,1106.14,529.45,1105.97,527.59z"/>
		<path class="st47" d="M1106.49,533.16c2.07,1.44,1.06,4.7,3.51,5.91c0.25,1.58,0.6,3.18-0.56,4.62
			C1106.3,540.01,1106.3,540.01,1106.49,533.16z"/>
		<path class="st48" d="M1118.05,521.18c-0.49-1.39-0.98-2.78-1.47-4.16c3.1,0.22,6.2,0.44,9.3,0.66c0.84,0.26,1.18,0.81,0.97,1.68
			c-0.74,0.97-1.91,1.31-2.89,1.92C1121.99,521.25,1120.02,521.21,1118.05,521.18z"/>
		<path class="st49" d="M1109.96,505.63c-2.49-1.93-0.97-5.63-3.36-7.61c0.12-0.91-0.08-2.07,0.41-2.69
			c0.98-1.23,1.77,0.01,2.15,0.74C1110.75,499.12,1110.25,502.39,1109.96,505.63z"/>
		<path class="st50" d="M1100.14,517.69c0,1.32-0.01,2.65-0.01,3.98c-1.94-0.17-3.89-0.33-5.83-0.5c-0.7-0.36-0.96-0.76-0.77-1.2
			c0.19-0.45,0.4-0.68,0.61-0.68C1096.14,518.75,1098.14,518.22,1100.14,517.69z"/>
		<path class="st51" d="M1126.34,519.45c-0.13-0.6-0.28-1.19-0.45-1.78c1.85-0.05,3.72-0.25,5.56-0.11
			c1.03,0.08,1.52,0.86,0.54,1.81C1130.12,520.82,1128.24,520.71,1126.34,519.45z"/>
		<path class="st52" d="M1094.14,519.28c0.08,0.62,0.13,1.25,0.16,1.88c-2.62-0.02-5.24-0.04-7.86-0.06
			c-0.79-0.31-1.06-0.62-0.81-0.95c0.26-0.33,0.51-0.49,0.78-0.49C1088.98,519.53,1091.56,519.41,1094.14,519.28z"/>
		<path class="st53" d="M1126.34,519.45c1.89-0.02,3.77-0.05,5.66-0.07c-2.15,2.86-5.18,1.97-8.03,1.9
			C1124.75,520.67,1125.55,520.06,1126.34,519.45z"/>
		<path class="st54" d="M1086.41,519.66c-0.06,0.48-0.05,0.96,0.02,1.44c-0.99-0.03-2.36,0.85-2.52-1.01
			C1083.9,520.02,1085.54,519.81,1086.41,519.66z"/>
		<path class="st4" d="M762.14,1094.86c6.69-23.07,13.48-46.12,18.65-69.59c-1.29-10.98,2.79-21.16,6.11-31.04
			c5.85-17.41,4.39-32.51-8.57-46.07c-2.19-2.29-5.11-5.33-3.53-8.71c1.8-3.85,6.25-3.29,9.81-3.3
			c36.29-0.17,72.59-0.11,108.88-0.09c7.73,0,12.37,3.54,15.04,10.62c3.99,10.59,8.01,21.16,11.89,31.78
			c7.81,23.61,17.37,46.59,25.65,70.04c13.91,37.59,27.97,75.13,41.82,112.74c2.89,7.85,9.58,13.59,10.92,22.05
			c-2.83,2.77-5.91,5.12-9.93,5.89c-4.43,1.51-8.93,2.24-13.66,2.23c-33.89-0.09-67.78-0.04-101.68-0.05
			c-1.66,0-3.33,0.07-4.98-0.13c-2.9-0.35-6.52,0.09-7.8-3.18c-1.12-2.87,1.69-4.86,3.45-6.62c10.57-10.55,13.07-22.32,7.23-36.35
			c-2.64-6.34-5.82-9.87-13.02-9.71c-11.29,0.26-22.59,0-33.89,0.12c-2.46,0.03-5.86-1.16-6.99,2.03c-0.82,2.31,1.6,4.19,2.95,6.02
			c17.41,23.49,36.26,45.85,54.37,68.79c7,8.86,14.56,17.27,21.35,26.29c2.34,3.11,5.57,5.87,5.37,10.34
			c-5.21,4.18-10.55,8.18-16.65,11.02c-5.67-9.43-12.22-18.22-19.33-26.59c-26.29-30.93-51.64-62.59-75.01-95.81
			c-0.75-1.06-1.65-2.01-3.26-3.94c-3.6,10-4.94,19.66-6.35,29.18c-1.54,10.41,6.28,17.51,11.63,26.25c-25.94,0-50.94,0-77.95,0
			c5.85-4.72,10.09-8.3,14.5-11.67c9.31-7.09,15.49-15.86,18.19-27.6c3.79-16.48,8.8-32.69,13.29-49.01
			C762.19,1099.07,760.56,1096.56,762.14,1094.86z"/>
		<path class="st2" d="M474.1,1173.87c-9.65-8.52-10.41-19.63-9.13-31.33c0.89-2.3,2.66-3.65,4.86-4.57
			c13.91-5.78,27.72-11.81,41.81-17.16c2.19-0.83,4.45-1.07,6.75-0.41c7.37,10.76,14.13,21.88,19.87,33.59
			C516.88,1160.62,495.49,1167.25,474.1,1173.87z"/>
		<path class="st55" d="M576.97,1422.96c3.91,0.24,7.37,3.98,7.26,7.86c-0.12,4.36-4.28,7.91-8.64,7.36
			c-3.99-0.5-7.14-4.36-6.75-8.25C569.22,1426.08,573.14,1422.73,576.97,1422.96z"/>
		<path class="st41" d="M557.48,1363.04c4.14,0.27,7.34,3.9,7.09,8.07c-0.25,4.19-3.8,7.37-7.96,7.14
			c-4.12-0.22-7.32-3.84-7.09-8.01C549.73,1366.19,553.5,1362.78,557.48,1363.04z"/>
		<path class="st5" d="M734.97,1344.58c-4.31,0.04-7.47-3.05-7.49-7.31c-0.02-4.31,3.05-7.33,7.45-7.34c4.49,0,7.49,2.92,7.48,7.27
			C742.4,1341.42,739.25,1344.54,734.97,1344.58z"/>
		<path class="st9" d="M738.53,1208c0.01,3.7-2.01,5.68-5.26,6.22c-3.12,0.52-6.66-2.95-6.26-6.11c0.42-3.26,2.26-5.54,5.82-5.49
			C736.33,1202.67,738.17,1204.73,738.53,1208z"/>
		<path class="st10" d="M669.49,1403.65c-0.16,3.66-1.9,6.04-5.36,6.17c-3.33,0.12-5.67-1.73-5.81-5.37
			c-0.13-3.54,1.69-5.72,5.21-5.97C667.17,1398.22,668.81,1400.58,669.49,1403.65z"/>
		<path class="st56" d="M553.04,1409.18c-0.46,3.26-2.37,5.32-5.89,5.06c-3.5-0.26-5.28-2.55-5.05-6.03
			c0.22-3.51,2.42-5.54,5.82-5.29C551.31,1403.18,553.08,1405.5,553.04,1409.18z"/>
		<path class="st6" d="M483.31,1385.22c-3.77-0.54-5.45-2.71-5.14-6.23c0.28-3.11,2.29-4.84,5.35-4.8c3.55,0.04,5.55,2.04,5.46,5.69
			C488.89,1383.6,486.6,1385.08,483.31,1385.22z"/>
		<path class="st57" d="M762.14,1094.86c0.48,2.23,0.32,4.29-1.51,5.92c-0.52-1.53-0.45-3.31-1.91-4.42
			C759.51,1095.07,760.82,1094.94,762.14,1094.86z"/>
		<path class="st1" d="M1210.6,984.46c8.71,3.19,16.01,8.93,25.14,14.25c0.31-14.49,0.61-28.08,0.9-41.67
			c40.76-15.14,80.52-32.63,119.84-51.11c46.89-22.04,92.55-46.35,136.39-74c0.83-0.52,1.8-0.84,2.7-1.25
			c2.12-0.45,2.89,0.47,2.55,2.51c-28.28,24.58-58.2,47.11-87.96,69.83c-16.07,12.26-32.41,24.16-48.63,36.22
			c-4.64,1.62-9.33,2.84-14.8,1.4c1.22,2.41,3.41,4.03,3.16,6.65c-5.81,6.04-12.93,10.41-19.66,15.22
			c-31.13,22.27-62.4,44.36-93.62,66.51c-9.5-14.72-19-29.45-28.5-44.17C1208.84,984.13,1209.67,983.97,1210.6,984.46z"/>
		<path class="st1" d="M1361.75,976.79c-1.59,13.89-6.03,27.12-9.64,40.52c-12.07,44.81-24.36,89.57-36.73,134.3
			c-1.55,5.61-2.44,11.77-7.84,15.8c-2.36-2.19-2.97-5.08-4.07-7.7c-14.32-33.96-30.63-66.94-48.78-99.02
			c-1.61-2.85-3.87-5.43-4.26-8.88c33.21-21.31,65.51-43.97,98.05-66.28C1352.85,982.53,1357.32,979.7,1361.75,976.79z"/>
		<path class="st58" d="M1349.87,947.29c-2.31-2.24-4.61-4.48-7.63-7.42c6.86-2.01,13.08-1.24,19.28-0.63
			C1357.96,942.4,1354.59,945.81,1349.87,947.29z"/>
		<path class="st59" d="M1498.12,833.19c-0.85-0.84-1.7-1.67-2.55-2.51c2.89-3.3,6.65-5.33,10.55-7.14c0.57,0.27,1.15,0.5,1.75,0.7
			c0,0,0.3,0.9,0.3,0.9C1505.21,828.31,1502.04,831.22,1498.12,833.19z"/>
		<path class="st60" d="M1513.98,819.06c-0.88,3.04-3.27,4.63-5.81,6.08c0,0-0.84-0.43-0.84-0.43c-0.1-0.81,0.09-1.55,0.57-2.22
			c1.41-2.23,3.35-3.51,6.07-3.43L1513.98,819.06z"/>
		<path class="st61" d="M1515.98,816.86c0.8-1.2,1.82-3.74,3.14-1.8c1.17,1.72-1.4,3.14-3.18,3.99c-0.49-0.49-0.65-0.98-0.48-1.47
			C1515.65,817.1,1515.82,816.86,1515.98,816.86z"/>
		<path class="st62" d="M1515.98,816.86c-0.01,0.73-0.02,1.46-0.03,2.19c0,0-0.98,0.11-0.98,0.11s-0.99-0.1-0.99-0.1
			s-0.01-0.01-0.01-0.01C1514.08,817.8,1514.91,817.22,1515.98,816.86z"/>
		<path class="st63" d="M1507.9,822.48c-0.19,0.74-0.38,1.48-0.57,2.22c-0.57-0.21-0.97-0.6-1.22-1.17
			C1506.71,823.18,1507.31,822.83,1507.9,822.48z"/>
		<path class="st1" d="M998.8,1183.28c-5.67-5.72-9.91-12.32-12.73-19.89c-13.58-36.54-27.24-73.05-40.82-109.58
			c-0.56-1.51-0.65-3.2-0.95-4.8c3.02-4.11,7.82-4.81,12.2-5.93c25.3-6.47,50.5-13.29,75.7-20.1c3.05-0.82,6.28-2.62,9.36,0.11
			c2.66,33.9,21.71,55.31,52.1,67.88c9.19,3.8,18.67,6.89,28.02,10.31c-3.66,4.42-8.88,6.69-13.51,9.75
			c-14.53,9.6-29.15,19.06-43.74,28.58c-6.14,0.83-9.3-5.06-14.46-7.04c-2.69,6.25,0.53,12.91-3.12,18.38
			C1031.41,1162.57,1015.15,1172.99,998.8,1183.28z"/>
		<path class="st1" d="M901.57,1248.95c-31.25-37.59-62.07-75.52-91.33-114.01c0.74-3.1,2.6-2.77,4.15-2.78
			c16.32-0.04,32.64,0.13,48.96-0.13c4.76-0.08,7.44,1.46,8.65,6.04c1.1,4.17,2.32,8.34,3.86,12.37
			c4.51,11.78,0.76,21.43-7.38,30.06c-2.2,2.33-4.36,4.71-8.03,8.67c44.12,0,86.27,0,128.42,0c-1.14,1.17-2.13,2.59-3.46,3.49
			C957.49,1211.45,929.52,1230.2,901.57,1248.95z"/>
		<path class="st1" d="M1184.76,976.64c14.85,19,27.92,39.2,40.57,59.68c-5.11,3.39-10.21,6.77-15.32,10.16
			c-14.97-10.04-31.78-15.93-48.66-21.69c-9.07-3.09-18.29-5.88-26.69-10.57c-6.31-3.52-12.77-7.21-14.35-15.3
			c0.77-1.08,1.52-2.3,2.75-2.77c19.07-7.27,38.26-14.18,57.83-20.01C1182.14,975.77,1183.51,976.16,1184.76,976.64z"/>
		<path class="st64" d="M1156.6,1114.38c6.32,3.01,12.32,6.52,17.04,11.78c8.13,9.06,6.86,18.5-3.44,24.99
			c-3.05,1.92-6.41,3.58-9.85,4.62c-21.12,6.37-42.36,6.87-63.62,0.6c-0.87-0.26-1.56-1.11-2.34-1.69
			C1115.13,1141.25,1135.87,1127.82,1156.6,1114.38z"/>
		<path class="st65" d="M1046.85,1150.93c0-7.71,0-15.43,0-24.57c6.43,4.84,12,9.04,17.58,13.23
			C1058.86,1143.82,1053.36,1148.16,1046.85,1150.93z"/>
		<path class="st66" d="M1244.02,1072.85c-3.22-3.3-6.45-6.6-9.67-9.9c1.72-1.24,3.43-2.49,5.15-3.72
			c2.87,3.41,4.98,7.27,6.78,11.31C1246.99,1072.74,1245.98,1073.26,1244.02,1072.85z"/>
		<path class="st1" d="M918.7,981c-4.66-12.05-9.52-24.03-13.86-36.2c-1.58-4.44-3.68-6.17-8.55-6.14
			c-39.54,0.2-79.07,0.12-118.61,0.16c-0.88,0-2.04-0.3-2.71,1.72c3.13,3.55,6.63,7.36,9.94,11.31c7.96,9.5,11.26,19.93,7.32,32.33
			c-4.3,13.55-6.37,27.73-11.43,41.09c-11.97,3.77-23.93,7.53-35.9,11.3c-11.02-20.87-22.81-41.31-33.15-62.55
			c-23.37-47.98-42.93-97.34-54.29-149.63c-6.59-30.34-10.41-60.97-7.19-92.14c1.37-13.32,4.02-26.33,9.01-38.73
			c14.43-35.91,41.61-54.1,79.85-56.1c25.35-1.33,49.58,4.56,73.25,12.97c40.77,14.49,77.75,36.13,113.07,60.76
			c61.5,42.9,115.86,93.78,166.12,149.17c13.4,14.77,26.99,29.42,38.74,45.6c-1.73,4.85-6.54,5.22-10.34,6.67
			c-62.46,23.75-125.21,46.72-188.86,67.13C927.13,980.99,923.13,983.55,918.7,981z"/>
		<path class="st2" d="M918.7,981c70.05-22.44,139.23-47.29,207.79-73.89c1.24-0.48,2.54-0.81,3.81-1.2
			c9.8,9.77,17.77,20.97,26.87,32.99c-13.07,0-24.53-0.24-35.98,0.05c-22.62,0.57-41.97,9.11-57.71,25.26
			c-13.73,14.09-21.22,31.06-21.53,50.94c-0.04,2.64-0.26,5.28-0.39,7.93c-32.42,8.64-64.84,17.28-97.26,25.92
			c-6.3-12.64-10.22-26.21-15.33-39.31C925.28,1000.23,922.1,990.57,918.7,981z"/>
		<path class="st67" d="M1391.03,1009.13c12.58,31.09,24.33,60.12,35.79,88.42c-1.64,2.99-3.46,2.58-5.01,2.59
			c-16.95,0.04-33.89,0.09-50.84,0.01c-7.46-0.03-7.6-0.2-5.55-6.98C1373.67,1065.89,1382.03,1038.65,1391.03,1009.13z"/>
		<path class="st68" d="M1184.76,976.64c-21.27,8.05-42.81,15.29-64.45,22.28c-4.36-7.04-1.19-12.6,3.73-17.55
			c4.06-4.08,9.38-6.05,14.86-7.44c13.68-3.49,27.43-3.13,41.19-0.5C1182.04,973.8,1183.89,974.57,1184.76,976.64z"/>
		<path class="st69" d="M1256.01,1091c-2.58-4.12-5.16-8.24-7.73-12.36c0.55-0.77,0.73-1.9,1.96-2c2.97,3.32,4.94,7.17,6.12,11.45
			C1257.07,1089.16,1256.96,1090.13,1256.01,1091z"/>
		<path class="st70" d="M1250.23,1076.64c-0.65,0.67-1.31,1.33-1.96,2c-1.42-1.93-2.84-3.86-4.26-5.8c0.76-0.77,1.51-1.54,2.27-2.31
			C1248.27,1072.14,1249.09,1074.5,1250.23,1076.64z"/>
		<path class="st71" d="M1256.01,1091c0.11-0.97,0.23-1.93,0.34-2.9c1.4,0.87,2.07,2.11,1.9,3.78c0.8,1.15,0.7,2.2-0.33,3.15
			C1256.78,1093.93,1256.01,1092.65,1256.01,1091z"/>
		<path class="st72" d="M1257.92,1095.03c0.11-1.05,0.22-2.09,0.33-3.15c1.45,0.98,2.29,2.27,2.02,4.1c-0.12,1-0.25,2.01-0.37,3.01
			C1258.49,1098.05,1258.02,1096.63,1257.92,1095.03z"/>
		<path class="st73" d="M1210.6,984.46c-0.84,0.13-1.67,0.26-2.51,0.39c-1.01-0.36-1.7-1.07-0.47-1.72
			C1208.84,982.49,1210.01,983.1,1210.6,984.46z"/>
		<path class="st64" d="M518.39,1120.4c-17.81,7.38-35.61,14.76-53.42,22.13c-0.06-36.25-0.12-72.51-0.15-108.76
			c0-0.19,0.39-0.38,1.63-1.51C483.84,1061.77,501.11,1091.09,518.39,1120.4z"/>
		<path class="st74" d="M799.5,1085.37c6.29-24.32,14.38-48.11,21.68-72.13c0.15-0.49,0.97-0.78,2.32-1.8
			c8.05,21.04,17.5,41.21,24.54,62.38c-0.7,2.66-2.99,3.47-5.19,4.08c-11.51,3.21-23.1,6.11-34.76,8.7
			C805.13,1087.25,802.13,1087.35,799.5,1085.37z"/>
		<path class="st75" d="M799.5,1085.37c16.18-3.85,32.36-7.7,48.54-11.56c4.27,7.86,7.14,16.28,10.26,24.64
			c-7.07,2.1-48.26,2.68-62.7,0.92C795.64,1094.36,797.62,1089.87,799.5,1085.37z"/>
		<path class="st6" d="M794.25,713.25c0.45,2.43,0.54,4.95,3.42,6.17c2.42,1.02,3.58,3.39,4.8,5.59c1.08,1.19,1.16,2.43,0.2,3.73
			c-1.63,2.67-3.45,5.16-6.52,6.36c-0.91,1.24-0.69,2.93-1.66,4.15l0-0.01c-0.71,0.85-1.31,0.79-1.81-0.2
			c0.29-4.89-5.86-5.23-6.64-9.37c-0.45-1.41-2.52-2.07-1.83-3.99c2.48-4.33,8.34-6.41,8.33-12.42
			C793.11,712.31,793.68,712.26,794.25,713.25z"/>
		<path class="st42" d="M730.36,715.23c-0.31,3.34-2.08,5.55-5.51,5.83c-3.5,0.28-5.61-1.8-6.26-5.07c-0.63-3.19,2.59-6.69,5.9-6.48
			C727.91,709.73,729.77,711.83,730.36,715.23z"/>
		<path class="st12" d="M748.93,749.72c-3.53,0.04-5.92-1.55-6.18-5.03c-0.26-3.43,1.69-5.6,5.22-5.84c3.5-0.24,5.8,1.54,6.11,4.98
			C754.4,747.33,752.29,749.25,748.93,749.72z"/>
		<path class="st17" d="M778.57,728.9c-2.62,0-5.24,0-9.67,0c5.25-2.92,9.05-4.02,13.31-3.26
			C783.08,729.04,779.48,727.48,778.57,728.9z"/>
		<path class="st27" d="M802.67,728.73c-0.07-1.24-0.14-2.49-0.2-3.73c1.95,0.15,3.89,0.29,5.84,0.44c0.69,0.32,0.97,0.72,0.85,1.18
			c-0.13,0.51-0.3,0.76-0.49,0.76C806.79,728.38,804.8,728.86,802.67,728.73z"/>
		<path class="st26" d="M778.57,728.9c1.21-1.09,2.43-2.17,3.64-3.26c0.67,0.01,1.34,0.02,2.01,0.03c0.61,1.33,1.22,2.66,1.83,4
			C783.55,729.41,781.06,729.15,778.57,728.9z"/>
		<path class="st30" d="M794.25,713.25l-0.85-0.03l-0.85,0.03c-0.77-2.63-0.13-5.23,0.14-7.85c0.48-1.11,0.94-1.1,1.37,0.03
			C794.11,708.04,794.18,710.65,794.25,713.25z"/>
		<path class="st32" d="M808.66,727.38c-0.18-0.64-0.3-1.28-0.35-1.94c1.97,0,3.95-0.01,5.92-0.01c0.74,0.3,1,0.64,0.79,1.01
			c-0.22,0.39-0.44,0.58-0.68,0.58C812.46,727.15,810.56,727.26,808.66,727.38z"/>
		<path class="st33" d="M792.69,739.03c0.61-0.04,1.22,0.03,1.81,0.2c0.76,1.98,0.38,3.94-0.15,5.89c-0.59,0.93-1.11,0.94-1.56-0.11
			C792.36,743.03,792.04,741.04,792.69,739.03z"/>
		<path class="st34" d="M792.79,745.01c0.52-0.01,1.04,0.03,1.56,0.11c0.3,1.57,0.5,3.12-0.85,4.4
			C792.26,748.14,792.52,746.58,792.79,745.01z"/>
		<path class="st37" d="M814.35,727.03c0-0.54-0.04-1.07-0.12-1.6c1.03,0.06,2.43-0.78,2.62,1.07
			C816.86,726.59,815.22,726.85,814.35,727.03z"/>
		<path class="st33" d="M794.49,739.24c-0.59-1.84-0.49-3.41,1.66-4.15C795.77,736.54,795.94,738.22,794.49,739.24z"/>
		<path class="st38" d="M794.05,705.44l-0.69-0.05c0,0-0.69,0.01-0.69,0.01c0.13-0.88,0.27-1.76,0.4-2.64
			C794.95,703.09,794.04,704.43,794.05,705.44z"/>
	</g>
</g>
</svg>
