<svg id="Layer_1" data-name="Layer 1" xmlns="http://www.w3.org/2000/svg" viewBox="0 0 1117.62 566.71"><defs><style>.cls-1,.cls-2{fill:none;}.cls-2{stroke:#231f20;stroke-miterlimit:10;stroke-width:20px;}.cls-3{font-size:188.45px;fill:#231f20;font-family:HyliaSerifBeta-Regular, Hylia Serif Beta;}.cls-4{letter-spacing:-0.02em;}.cls-5{letter-spacing:-0.07em;}.cls-6{letter-spacing:-0.07em;}.cls-7{letter-spacing:0.01em;}.cls-8{fill:#fff;}</style></defs><text/><text/><rect class="cls-1" x="10" y="18.62" width="1097.62" height="538.1"/><rect class="cls-2" x="10" y="18.62" width="1097.62" height="538.1"/><text class="cls-3" transform="translate(43.11 257.17)">HA<tspan class="cls-4" x="265.15" y="0">R</tspan><tspan class="cls-5" x="393.48" y="0">V</tspan><tspan x="489.59" y="0">ARD</tspan><tspan class="cls-6" x="0" y="226.14">F</tspan><tspan x="102.52" y="226.14">AB </tspan><tspan class="cls-7" x="394.99" y="226.14">L</tspan><tspan x="506.74" y="226.14">AB</tspan></text><path d="M939,261.32H957.7c1,.2,1.95.47,2.95.61,3.2.44,6.41.78,9.6,1.27a4.82,4.82,0,0,1,3.79,4.14c.23,2.06.49,4.12.72,6.18a5.63,5.63,0,0,0,3.53,5c1.25.52,2.57.85,3.86,1.26a93.39,93.39,0,0,1,16.73,7.28c2.32,1.29,4.5,1.43,6.68-.28,1.63-1.29,3.29-2.52,5-3.74,2.4-1.73,4.4-1.71,6.83,0a122.57,122.57,0,0,1,29.5,29.66,5.45,5.45,0,0,1-.23,6.66c-1.31,1.66-2.58,3.35-3.91,5-1.74,2.16-1.55,4.31-.28,6.65a80.35,80.35,0,0,1,4,8.27c1.61,4,2.92,8.16,4.46,12.21a4.89,4.89,0,0,0,4.08,3.29l7.35,1a4.74,4.74,0,0,1,4,3.63c.47,2.63.78,5.28,1.2,7.92.13.79.4,1.55.61,2.33V393a3.74,3.74,0,0,0-.44,1c-.35,2.57-.58,5.15-1,7.71-.61,3.7-2.17,5.05-5.88,5.42-1.94.19-3.9.38-5.82.74a5.12,5.12,0,0,0-4.25,3.73,81.33,81.33,0,0,1-2.62,7.81q-2.7,6.36-5.8,12.53a5.61,5.61,0,0,0,.61,6.64q2,2.46,3.92,5a5.27,5.27,0,0,1,.12,6.25,120.18,120.18,0,0,1-29.79,30,5.58,5.58,0,0,1-6.77-.2c-1.74-1.33-3.51-2.62-5.29-3.92a4.8,4.8,0,0,0-5.38-.51c-2.62,1.34-5.2,2.8-7.91,3.92-4.11,1.71-8.3,3.22-12.49,4.71-2.12.76-3.87,1.81-4.27,4.19s-.7,4.73-1,7.11a4.9,4.9,0,0,1-3.62,4.28c-3.59.66-7.22,1.54-10.84,1.6-10.44.18-20.91.68-31.31-1.08-3.21-.55-5.5-1.81-5.74-5.56-.1-1.47-.29-2.94-.51-4.4-.31-2-.61-4.11-2.64-5.23a17.71,17.71,0,0,0-3-1.11,107.48,107.48,0,0,1-19.14-8.29,4.72,4.72,0,0,0-5.5.27c-1.84,1.34-3.74,2.61-5.46,4.08a6,6,0,0,1-6.6.26,120.64,120.64,0,0,1-29.57-29.55c-1.81-2.54-1.82-4.84.11-7.32,1.39-1.79,2.82-3.56,4.16-5.4a4.2,4.2,0,0,0,.48-4.51c-1.16-2.44-2.52-4.79-3.54-7.29-1.84-4.52-3.6-9.08-5.18-13.7-.86-2.51-2.33-4-4.93-4.34q-3.15-.36-6.3-.8a5.3,5.3,0,0,1-4.84-4.84c-.56-5.27-1-10.55-1.57-15.82a4,4,0,0,0-.41-1v-7.91a3.2,3.2,0,0,0,.41-.91c.51-5.08,1-10.16,1.49-15.23.31-3.1,1.76-5.19,5.31-5.56,2.18-.22,4.35-.6,6.52-.92s3.53-1.81,4.21-3.9,1.27-4.37,2.17-6.45c2-4.74,4.21-9.43,6.41-14.11a5,5,0,0,0-.51-5.7c-1.35-1.73-2.69-3.47-4.06-5.18a5.05,5.05,0,0,1-.41-6.31,107.31,107.31,0,0,1,12-14.86,122.87,122.87,0,0,1,17.27-14.94c2.83-2.05,4.83-2,7.6,0,1.91,1.44,3.83,2.88,5.84,4.18a4.25,4.25,0,0,0,4.24.1c.93-.44,1.82-1,2.74-1.46a116.7,116.7,0,0,1,18.9-7.62,4.49,4.49,0,0,0,3.32-3.61c.41-2.44.79-4.88,1.1-7.33a4.69,4.69,0,0,1,4-4.44c3.15-.5,6.33-.81,9.49-1.24C937.1,261.79,938,261.52,939,261.32Zm80.58,201.15a10.81,10.81,0,0,0,2.84-1.3,72.55,72.55,0,0,0,5.76-5.74,3.89,3.89,0,0,0,.54-4.7c-1.07-1.86-2.33-3.61-3.53-5.39-1.77-2.64-1.94-4.84,0-7.45a94.47,94.47,0,0,0,13.45-25.71,105.9,105.9,0,0,0,4.19-17.28,4.56,4.56,0,0,1,3.44-3.91,60.8,60.8,0,0,1,6-1.24c3.74-.6,5.45-2.39,5.53-6.12,0-2,0-4-.14-6a5.17,5.17,0,0,0-4.14-4.49c-2.24-.4-4.49-.79-6.7-1.32a4.89,4.89,0,0,1-3.93-3.9c-.66-3.08-1.17-6.19-1.85-9.26a87.55,87.55,0,0,0-7.3-20,90.8,90.8,0,0,0-8.55-13.93c-1.63-2.18-1.88-4.42-.32-6.75,1.07-1.59,2.12-3.18,3.21-4.75,1.7-2.47,1.53-4.78-.57-6.91q-1.93-2-3.89-3.9c-2.34-2.33-4.56-2.51-7.29-.67-1.62,1.09-3.25,2.17-4.91,3.19a5.12,5.12,0,0,1-6.05-.21c-1.31-.93-2.6-1.86-3.92-2.75a83.48,83.48,0,0,0-17.62-9.26c-4.41-1.6-8.9-3-13.42-4.25-2.83-.8-5.79-1.16-8.67-1.79a4.53,4.53,0,0,1-3.57-3.36c-.59-2.23-1-4.52-1.35-6.8s-1.4-3.69-3.71-3.88a57.35,57.35,0,0,0-9.08,0c-2.71.2-3.54,1.33-4,4.06-.36,2.12-.79,4.24-1.3,6.33a4.91,4.91,0,0,1-4.13,3.81c-4.29.9-8.65,1.63-12.83,2.93a140.08,140.08,0,0,0-14.27,5.37,85.15,85.15,0,0,0-16,9.58,5.12,5.12,0,0,1-6.24.18c-1.82-1.15-3.61-2.35-5.43-3.5a4.79,4.79,0,0,0-6.15.58c-1.59,1.52-3.15,3.06-4.68,4.65a5,5,0,0,0-.34,6.57q1.59,2.24,3.11,4.53c1.63,2.48,1.46,4.58-.19,7.09-2.59,3.92-5.23,7.82-7.5,11.93a74,74,0,0,0-7,17.3c-1.11,4.36-2,8.77-3,13.17-.4,1.9-1.12,3.64-3.07,4.23a61.15,61.15,0,0,1-7.44,1.7c-2.23.38-4.32,2.28-4.41,4.53-.1,2.45-.08,4.92,0,7.38a4.8,4.8,0,0,0,3.8,4.37q3,.63,6,1.15c2.83.5,4.65,2.17,5.08,4.54.56,3.14,1.15,6.28,1.84,9.39a84.73,84.73,0,0,0,6.61,18.4,94.75,94.75,0,0,0,9.2,15.2,5.25,5.25,0,0,1,.44,6.25c-1.11,1.84-2.36,3.6-3.56,5.38a4.72,4.72,0,0,0,0,5.78,69.33,69.33,0,0,0,5.76,5.74,3.88,3.88,0,0,0,4.59.59c2.19-1.23,4.26-2.64,6.4-4a5.5,5.5,0,0,1,6.48.3,95.24,95.24,0,0,0,22.11,12.21,98.1,98.1,0,0,0,20.66,5.48,4.18,4.18,0,0,1,3.66,2.71,69.57,69.57,0,0,1,1.8,7.78c.36,1.93,1.28,3.29,3,3.59a30.51,30.51,0,0,0,10.74,0,2.92,2.92,0,0,0,2.53-2.25c.6-2.6,1.15-5.21,1.71-7.81a5.45,5.45,0,0,1,4.22-4.06c4.48-.94,9-1.87,13.4-3a69.13,69.13,0,0,0,16.57-6.7c4.41-2.46,8.62-5.28,12.87-8a5.45,5.45,0,0,1,6.17-.32c1.81,1.09,3.53,2.33,5.35,3.41A28.29,28.29,0,0,0,1019.56,462.47Z"/><path class="cls-8" d="M828.1,385.27a4,4,0,0,1,.41,1c.54,5.27,1,10.55,1.57,15.82a5.3,5.3,0,0,0,4.84,4.84q3.15.43,6.3.8c2.6.3,4.07,1.83,4.93,4.34,1.58,4.62,3.34,9.18,5.18,13.7,1,2.5,2.38,4.85,3.54,7.29a4.2,4.2,0,0,1-.48,4.51c-1.34,1.84-2.77,3.61-4.16,5.4-1.93,2.48-1.92,4.78-.11,7.32a120.64,120.64,0,0,0,29.57,29.55,6,6,0,0,0,6.6-.26c1.72-1.47,3.62-2.74,5.46-4.08a4.72,4.72,0,0,1,5.5-.27,107.48,107.48,0,0,0,19.14,8.29,17.71,17.71,0,0,1,3,1.11c2,1.12,2.33,3.21,2.64,5.23.22,1.46.41,2.93.51,4.4.24,3.75,2.53,5,5.74,5.56,10.4,1.76,20.87,1.26,31.31,1.08,3.62-.06,7.25-.94,10.84-1.6a4.9,4.9,0,0,0,3.62-4.28c.28-2.38.58-4.75,1-7.11s2.15-3.43,4.27-4.19c4.19-1.49,8.38-3,12.49-4.71,2.71-1.12,5.29-2.58,7.91-3.92a4.8,4.8,0,0,1,5.38.51c1.78,1.3,3.55,2.59,5.29,3.92a5.58,5.58,0,0,0,6.77.2,120.18,120.18,0,0,0,29.79-30,5.27,5.27,0,0,0-.12-6.25q-1.9-2.53-3.92-5a5.61,5.61,0,0,1-.61-6.64q3.09-6.16,5.8-12.53a81.33,81.33,0,0,0,2.62-7.81,5.12,5.12,0,0,1,4.25-3.73c1.92-.36,3.88-.55,5.82-.74,3.71-.37,5.27-1.72,5.88-5.42.42-2.56.65-5.14,1-7.71a3.74,3.74,0,0,1,.44-1V501.32h-240Z"/><path class="cls-8" d="M939,261.32c-1,.2-1.88.47-2.83.6-3.16.43-6.34.74-9.49,1.24a4.69,4.69,0,0,0-4,4.44c-.31,2.45-.69,4.89-1.1,7.33a4.49,4.49,0,0,1-3.32,3.61,116.7,116.7,0,0,0-18.9,7.62c-.92.47-1.81,1-2.74,1.46a4.25,4.25,0,0,1-4.24-.1c-2-1.3-3.93-2.74-5.84-4.18-2.77-2.09-4.77-2.1-7.6,0a122.87,122.87,0,0,0-17.27,14.94,107.31,107.31,0,0,0-12,14.86,5.05,5.05,0,0,0,.41,6.31c1.37,1.71,2.71,3.45,4.06,5.18a5,5,0,0,1,.51,5.7c-2.2,4.68-4.37,9.37-6.41,14.11-.9,2.08-1.47,4.29-2.17,6.45s-1.92,3.57-4.21,3.9-4.34.7-6.52.92c-3.55.37-5,2.46-5.31,5.56-.51,5.07-1,10.15-1.49,15.23a3.2,3.2,0,0,1-.41.91v-116Z"/><path class="cls-8" d="M1068.1,369.69c-.21-.78-.48-1.54-.61-2.33-.42-2.64-.73-5.29-1.2-7.92a4.74,4.74,0,0,0-4-3.63l-7.35-1a4.89,4.89,0,0,1-4.08-3.29c-1.54-4.05-2.85-8.19-4.46-12.21a80.35,80.35,0,0,0-4-8.27c-1.27-2.34-1.46-4.49.28-6.65,1.33-1.64,2.6-3.33,3.91-5a5.45,5.45,0,0,0,.23-6.66,122.57,122.57,0,0,0-29.5-29.66c-2.43-1.71-4.43-1.73-6.83,0-1.69,1.22-3.35,2.45-5,3.74-2.18,1.71-4.36,1.57-6.68.28a93.39,93.39,0,0,0-16.73-7.28c-1.29-.41-2.61-.74-3.86-1.26a5.63,5.63,0,0,1-3.53-5c-.23-2.06-.49-4.12-.72-6.18a4.82,4.82,0,0,0-3.79-4.14c-3.19-.49-6.4-.83-9.6-1.27-1-.14-2-.41-2.95-.61h110.4Z"/><path class="cls-8" d="M1019.56,462.47a28.29,28.29,0,0,1-3-1.32c-1.82-1.08-3.54-2.32-5.35-3.41a5.45,5.45,0,0,0-6.17.32c-4.25,2.73-8.46,5.55-12.87,8a69.13,69.13,0,0,1-16.57,6.7c-4.43,1.14-8.92,2.07-13.4,3a5.45,5.45,0,0,0-4.22,4.06c-.56,2.6-1.11,5.21-1.71,7.81a2.92,2.92,0,0,1-2.53,2.25,30.51,30.51,0,0,1-10.74,0c-1.73-.3-2.65-1.66-3-3.59a69.57,69.57,0,0,0-1.8-7.78,4.18,4.18,0,0,0-3.66-2.71,98.1,98.1,0,0,1-20.66-5.48,95.24,95.24,0,0,1-22.11-12.21,5.5,5.5,0,0,0-6.48-.3c-2.14,1.31-4.21,2.72-6.4,4a3.88,3.88,0,0,1-4.59-.59,69.33,69.33,0,0,1-5.76-5.74,4.72,4.72,0,0,1,0-5.78c1.2-1.78,2.45-3.54,3.56-5.38a5.25,5.25,0,0,0-.44-6.25,94.75,94.75,0,0,1-9.2-15.2,84.73,84.73,0,0,1-6.61-18.4c-.69-3.11-1.28-6.25-1.84-9.39-.43-2.37-2.25-4-5.08-4.54q-3-.52-6-1.15a4.8,4.8,0,0,1-3.8-4.37c-.08-2.46-.1-4.93,0-7.38.09-2.25,2.18-4.15,4.41-4.53a61.15,61.15,0,0,0,7.44-1.7c1.95-.59,2.67-2.33,3.07-4.23,1-4.4,1.86-8.81,3-13.17a74,74,0,0,1,7-17.3c2.27-4.11,4.91-8,7.5-11.93,1.65-2.51,1.82-4.61.19-7.09q-1.51-2.3-3.11-4.53a5,5,0,0,1,.34-6.57c1.53-1.59,3.09-3.13,4.68-4.65a4.79,4.79,0,0,1,6.15-.58c1.82,1.15,3.61,2.35,5.43,3.5a5.12,5.12,0,0,0,6.24-.18,85.15,85.15,0,0,1,16-9.58,140.08,140.08,0,0,1,14.27-5.37c4.18-1.3,8.54-2,12.83-2.93a4.91,4.91,0,0,0,4.13-3.81c.51-2.09.94-4.21,1.3-6.33.46-2.73,1.29-3.86,4-4.06a57.35,57.35,0,0,1,9.08,0c2.31.19,3.34,1.6,3.71,3.88s.76,4.57,1.35,6.8a4.53,4.53,0,0,0,3.57,3.36c2.88.63,5.84,1,8.67,1.79,4.52,1.27,9,2.65,13.42,4.25a83.48,83.48,0,0,1,17.62,9.26c1.32.89,2.61,1.82,3.92,2.75a5.12,5.12,0,0,0,6.05.21c1.66-1,3.29-2.1,4.91-3.19,2.73-1.84,5-1.66,7.29.67q2,1.94,3.89,3.9c2.1,2.13,2.27,4.44.57,6.91-1.09,1.57-2.14,3.16-3.21,4.75-1.56,2.33-1.31,4.57.32,6.75a90.8,90.8,0,0,1,8.55,13.93,87.55,87.55,0,0,1,7.3,20c.68,3.07,1.19,6.18,1.85,9.26a4.89,4.89,0,0,0,3.93,3.9c2.21.53,4.46.92,6.7,1.32a5.17,5.17,0,0,1,4.14,4.49c.12,2,.19,4,.14,6-.08,3.73-1.79,5.52-5.53,6.12a60.8,60.8,0,0,0-6,1.24,4.56,4.56,0,0,0-3.44,3.91,105.9,105.9,0,0,1-4.19,17.28,94.47,94.47,0,0,1-13.45,25.71c-1.92,2.61-1.75,4.81,0,7.45,1.2,1.78,2.46,3.53,3.53,5.39a3.89,3.89,0,0,1-.54,4.7,72.55,72.55,0,0,1-5.76,5.74A10.81,10.81,0,0,1,1019.56,462.47ZM948.52,312a69.31,69.31,0,1,0,69.26,68.88A69.19,69.19,0,0,0,948.52,312Z"/><path d="M948.52,312A69.31,69.31,0,1,1,879,384.72,69.08,69.08,0,0,1,948.52,312Zm-2.18,25.71c-1.53.07-3.74.09-5.92.32-1.54.16-3,.62-4.57.91a3,3,0,0,0-2.58,2.33c-.33,1.5.6,2.38,1.75,3.11,5.34,3.4,10.65,6.87,16,10.19s6.75,9.23,3.42,14.48c-3.57,5.65-7.24,11.25-10.7,17-3.28,5.42-9.38,7-14.72,3.56-6.55-4.18-13.1-8.37-19.69-12.49a3.23,3.23,0,0,0-2.23-.39c-1.75.42-2.34,1.63-2.08,3.85a52.77,52.77,0,0,0,4.67,17.21,38.13,38.13,0,0,0,13.61,15A38.85,38.85,0,0,0,938,418.62a38,38,0,0,0,11,.5,8.82,8.82,0,0,1,8.1,2.89c3.32,3.77,6.72,7.48,10,11.25a1.42,1.42,0,0,0,1.9.39c2.27-1,4.61-2,6.79-3.21a55.83,55.83,0,0,0,26-31.27,1.8,1.8,0,0,0-.27-1.58c-3.58-3.3-7.16-6.59-10.87-9.74-2.76-2.34-4.62-4.92-4.45-8.77a36,36,0,0,0-1.71-12.27,40.55,40.55,0,0,0-12-18.76C965.15,341.64,956.67,338.25,946.34,337.73Z"/><path class="cls-8" d="M946.34,337.73c10.33.52,18.81,3.91,26.09,10.32a40.55,40.55,0,0,1,12,18.76,36,36,0,0,1,1.71,12.27c-.17,3.85,1.69,6.43,4.45,8.77,3.71,3.15,7.29,6.44,10.87,9.74a1.8,1.8,0,0,1,.27,1.58,55.83,55.83,0,0,1-26,31.27c-2.18,1.22-4.52,2.16-6.79,3.21a1.42,1.42,0,0,1-1.9-.39c-3.32-3.77-6.72-7.48-10-11.25a8.82,8.82,0,0,0-8.1-2.89,38,38,0,0,1-11-.5,38.85,38.85,0,0,1-14.65-5.89,38.13,38.13,0,0,1-13.61-15,52.77,52.77,0,0,1-4.67-17.21c-.26-2.22.33-3.43,2.08-3.85a3.23,3.23,0,0,1,2.23.39c6.59,4.12,13.14,8.31,19.69,12.49,5.34,3.42,11.44,1.86,14.72-3.56,3.46-5.72,7.13-11.32,10.7-17,3.33-5.25,1.86-11.22-3.42-14.48s-10.7-6.79-16-10.19c-1.15-.73-2.08-1.61-1.75-3.11a3,3,0,0,1,2.58-2.33c1.53-.29,3-.75,4.57-.91C942.6,337.82,944.81,337.8,946.34,337.73Z"/></svg>